<?xml version="1.0"?>
<!--Icons from directory ""-->
<svg xmlns="http://www.w3.org/2000/svg" width="58" height="92" viewBox="0 0 58 92"><svg xmlns:xlink="http://www.w3.org/1999/xlink" id="BigHeart" xml:space="preserve" height="51" viewBox="-10 -10 58 51.13" width="58" version="1.1" y="0" x="0px" enable-background="new 0 0 38 31.13">	<path d="m18.968 4.555c-0.253-0.28-0.438-0.472-0.605-0.674-2.876-3.551-7.729-4.781-11.948-3.062-3.983 1.621-6.928 6.019-6.34 10.563 0.251 1.923 1.024 3.659 2.021 5.286 3.947 6.458 9.589 11.016 16.279 14.366 0.34 0.175 0.951 0.091 1.316-0.105 4.143-2.229 7.954-4.939 11.297-8.254 2.611-2.587 4.936-5.406 6.268-8.896 1.545-4.053 0.644-7.675-2.3-10.68-2.901-2.958-6.499-3.76-10.503-2.573-2.266 0.67-3.984 2.095-5.485 4.029z" fill="red"/></svg><svg xmlns:xlink="http://www.w3.org/1999/xlink" id="SmallHeart" xml:space="preserve" height="41" viewBox="-10 -10 46 41.3" width="46" version="1.1" y="51" x="0px" enable-background="new 0 0 26 21.3">	<path d="m12.979 3.117c-0.174-0.191-0.3-0.323-0.414-0.462-1.969-2.43-5.289-3.27-8.176-2.095-2.724 1.11-4.74 4.119-4.337 7.228 0.173 1.316 0.701 2.503 1.383 3.617 2.701 4.418 6.561 7.538 11.138 9.83 0.232 0.12 0.651 0.062 0.901-0.072 2.833-1.526 5.441-3.38 7.729-5.647 1.787-1.771 3.377-3.7 4.287-6.087 1.058-2.773 0.441-5.252-1.573-7.308-1.986-2.023-4.447-2.571-7.187-1.76-1.55 0.457-2.725 1.431-3.751 2.756z" fill="red"/></svg></svg>
